<svg width="1680" height="334" viewBox="0 0 1680 334" fill="none" xmlns="http://www.w3.org/2000/svg">
<g clip-path="url(#clip0_101_2)">
<mask id="path-1-inside-1_101_2" fill="white">
<path d="M449.732 73.4464C450.897 58.575 458.7 44.6356 471.649 34.2942C484.599 23.9529 501.785 17.9354 519.922 17.3928C538.06 16.8502 555.874 21.8204 569.958 31.353C584.042 40.8856 593.408 54.3113 596.264 69.0624L587.472 70.1368C584.961 57.1652 576.725 45.359 564.339 36.9765C551.954 28.5939 536.289 24.2232 520.34 24.7003C504.391 25.1775 489.277 30.469 477.89 39.5628C466.503 48.6567 459.641 60.9145 458.617 73.9918L449.732 73.4464Z"/>
</mask>
<path d="M449.732 73.4464C450.897 58.575 458.7 44.6356 471.649 34.2942C484.599 23.9529 501.785 17.9354 519.922 17.3928C538.06 16.8502 555.874 21.8204 569.958 31.353C584.042 40.8856 593.408 54.3113 596.264 69.0624L587.472 70.1368C584.961 57.1652 576.725 45.359 564.339 36.9765C551.954 28.5939 536.289 24.2232 520.34 24.7003C504.391 25.1775 489.277 30.469 477.89 39.5628C466.503 48.6567 459.641 60.9145 458.617 73.9918L449.732 73.4464Z" fill="#EB5757" stroke="#EB5757" stroke-width="20" mask="url(#path-1-inside-1_101_2)"/>
<g opacity="0.8">
<mask id="path-2-inside-2_101_2" fill="white">
<path d="M473.109 75.6861C474.638 64.8845 480.707 54.9719 490.156 47.8442C499.605 40.7165 511.769 36.874 524.324 37.0515C536.878 37.2291 548.941 41.4143 558.205 48.8067C567.47 56.199 573.285 66.2797 574.538 77.1206L568.413 77.6258C567.31 68.0927 562.197 59.2281 554.05 52.7275C545.904 46.227 535.296 42.5466 524.256 42.3905C513.216 42.2344 502.519 45.6133 494.21 51.8812C485.901 58.1491 480.564 66.8658 479.22 76.3643L473.109 75.6861Z"/>
</mask>
<path d="M473.109 75.6861C474.638 64.8845 480.707 54.9719 490.156 47.8442C499.605 40.7165 511.769 36.874 524.324 37.0515C536.878 37.2291 548.941 41.4143 558.205 48.8067C567.47 56.199 573.285 66.2797 574.538 77.1206L568.413 77.6258C567.31 68.0927 562.197 59.2281 554.05 52.7275C545.904 46.227 535.296 42.5466 524.256 42.3905C513.216 42.2344 502.519 45.6133 494.21 51.8812C485.901 58.1491 480.564 66.8658 479.22 76.3643L473.109 75.6861Z" fill="white" stroke="#FCFF5C" stroke-width="20" mask="url(#path-2-inside-2_101_2)"/>
</g>
<mask id="path-3-inside-3_101_2" fill="white">
<path d="M449.732 248.053C450.897 262.924 458.7 276.864 471.649 287.205C484.599 297.546 501.785 303.564 519.922 304.106C538.06 304.649 555.874 299.679 569.958 290.146C584.042 280.614 593.408 267.188 596.264 252.437L587.472 251.362C584.961 264.334 576.725 276.14 564.339 284.523C551.954 292.905 536.289 297.276 520.34 296.799C504.391 296.322 489.277 291.03 477.89 281.936C466.503 272.842 459.641 260.585 458.617 247.507L449.732 248.053Z"/>
</mask>
<path d="M449.732 248.053C450.897 262.924 458.7 276.864 471.649 287.205C484.599 297.546 501.785 303.564 519.922 304.106C538.06 304.649 555.874 299.679 569.958 290.146C584.042 280.614 593.408 267.188 596.264 252.437L587.472 251.362C584.961 264.334 576.725 276.14 564.339 284.523C551.954 292.905 536.289 297.276 520.34 296.799C504.391 296.322 489.277 291.03 477.89 281.936C466.503 272.842 459.641 260.585 458.617 247.507L449.732 248.053Z" fill="#C4C4C4" stroke="#EB5757" stroke-width="20" mask="url(#path-3-inside-3_101_2)"/>
<g opacity="0.8">
<mask id="path-4-inside-4_101_2" fill="white">
<path d="M473.109 245.813C474.638 256.615 480.707 266.527 490.156 273.655C499.605 280.783 511.769 284.625 524.324 284.448C536.878 284.27 548.941 280.085 558.205 272.692C567.47 265.3 573.285 255.219 574.538 244.378L568.413 243.873C567.31 253.406 562.197 262.271 554.05 268.772C545.904 275.272 535.296 278.952 524.256 279.109C513.216 279.265 502.519 275.886 494.21 269.618C485.901 263.35 480.564 254.633 479.22 245.135L473.109 245.813Z"/>
</mask>
<path d="M473.109 245.813C474.638 256.615 480.707 266.527 490.156 273.655C499.605 280.783 511.769 284.625 524.324 284.448C536.878 284.27 548.941 280.085 558.205 272.692C567.47 265.3 573.285 255.219 574.538 244.378L568.413 243.873C567.31 253.406 562.197 262.271 554.05 268.772C545.904 275.272 535.296 278.952 524.256 279.109C513.216 279.265 502.519 275.886 494.21 269.618C485.901 263.35 480.564 254.633 479.22 245.135L473.109 245.813Z" fill="white" stroke="#FCFF5C" stroke-width="20" mask="url(#path-4-inside-4_101_2)"/>
</g>
<rect x="6.93" y="0.468657" width="153.695" height="20.9672" rx="10.4836" transform="matrix(0.741541 -0.670907 0.644459 0.764639 453.336 211.413)" stroke="#F2994A" stroke-width="10"/>
<path d="M684.799 221.76C675.784 216.511 668.393 209.408 663.282 201.079C658.17 192.751 655.495 183.454 655.493 174.011C655.49 164.568 658.161 155.27 663.268 146.94C668.376 138.61 675.762 131.504 684.775 126.251L691.252 134.676C683.83 139.002 677.747 144.854 673.541 151.715C669.335 158.575 667.136 166.232 667.138 174.009C667.139 181.785 669.343 189.442 673.552 196.301C677.762 203.159 683.848 209.009 691.272 213.332L684.799 221.76Z" fill="#BB6BD9"/>
<path d="M758.172 126.237C767.187 131.486 774.577 138.589 779.688 146.918C784.8 155.246 787.475 164.543 787.477 173.986C787.48 183.429 784.809 192.727 779.702 201.057C774.595 209.387 767.208 216.493 758.196 221.746L751.718 213.321C759.14 208.995 765.223 203.143 769.429 196.282C773.635 189.422 775.835 181.765 775.833 173.988C775.831 166.211 773.628 158.555 769.418 151.696C765.208 144.838 759.122 138.988 751.698 134.665L758.172 126.237Z" fill="#BB6BD9"/>
<path d="M673.033 238.688C660.987 231.516 651.113 221.81 644.283 210.431C637.453 199.052 633.878 186.349 633.875 173.447C633.871 160.545 637.44 147.84 644.264 136.458C651.089 125.076 660.959 115.367 673.001 108.19L678.225 115.138C667.465 121.551 658.647 130.226 652.549 140.396C646.451 150.566 643.263 161.917 643.266 173.445C643.269 184.973 646.463 196.323 652.565 206.49C658.668 216.658 667.491 225.329 678.254 231.738L673.033 238.688Z" fill="#56CCF2"/>
<path d="M768.167 108.171C780.057 115.344 789.805 125.049 796.546 136.428C803.288 147.808 806.817 160.51 806.82 173.412C806.823 186.315 803.301 199.019 796.564 210.401C789.828 221.783 780.085 231.492 768.198 238.669L763.042 231.721C773.663 225.308 782.368 216.633 788.387 206.463C794.406 196.293 797.553 184.942 797.55 173.414C797.547 161.886 794.394 150.536 788.371 140.369C782.347 130.201 773.637 121.53 763.013 115.121L768.167 108.171Z" fill="#56CCF2"/>
<ellipse cx="720.347" cy="173.998" rx="12.5158" ry="11.9469" fill="white"/>
<path d="M926.828 145.594C935.37 148.128 944.476 148.93 953.342 147.93C962.207 146.931 970.559 144.159 977.657 139.862C984.756 135.565 990.383 129.873 994.04 123.292C997.697 116.711 999.272 109.442 998.626 102.129L988.991 102.427C989.523 108.449 988.226 114.435 985.214 119.855C982.202 125.276 977.568 129.962 971.722 133.502C965.876 137.041 958.998 139.323 951.697 140.146C944.396 140.97 936.897 140.309 929.862 138.223L926.828 145.594Z" fill="#EAD302"/>
<path d="M920.59 159.257C932.045 162.595 944.276 163.611 956.201 162.215C968.126 160.818 979.377 157.053 988.96 151.251C998.543 145.45 1006.16 137.791 1011.14 128.953C1016.12 120.114 1018.31 110.369 1017.52 100.578L1009.7 100.857C1010.41 109.604 1008.45 118.312 1004 126.209C999.554 134.106 992.747 140.949 984.184 146.133C975.622 151.317 965.568 154.681 954.913 155.929C944.258 157.176 933.33 156.269 923.095 153.286L920.59 159.257Z" fill="#EAD302"/>
<path d="M921.083 218.991C912.534 212.494 905.526 203.703 900.679 193.395C895.832 183.088 893.295 171.582 893.293 159.895C893.29 148.208 895.823 136.701 900.666 126.391C905.509 116.081 912.514 107.287 921.06 100.786L927.203 111.213C920.164 116.567 914.396 123.81 910.407 132.3C906.419 140.791 904.333 150.268 904.335 159.892C904.337 169.517 906.426 178.993 910.418 187.481C914.41 195.97 920.181 203.21 927.221 208.56L921.083 218.991Z" fill="#27AE60"/>
<path d="M911.088 240.648C899.663 231.708 890.298 219.611 883.821 205.428C877.343 191.245 873.953 175.413 873.95 159.332C873.947 143.251 877.331 127.417 883.804 113.231C890.276 99.0445 899.636 86.9432 911.057 77.9976L916.012 86.6575C905.807 94.6504 897.443 105.463 891.661 118.138C885.878 130.814 882.854 144.961 882.856 159.33C882.859 173.698 885.888 187.844 891.676 200.517C897.464 213.189 905.831 223.997 916.039 231.985L911.088 240.648Z" fill="#27AE60"/>
<line y1="-5" x2="88.8479" y2="-5" transform="matrix(0.712826 0.701341 0.838139 -0.545456 965.025 165.254)" stroke="#F2994A" stroke-width="10"/>
<line y1="-5" x2="88.8479" y2="-5" transform="matrix(0.712826 0.701341 0.838139 -0.545456 935.3 172.266)" stroke="#F2994A" stroke-width="10"/>
<path d="M1195.44 222.07C1191.94 228.963 1186.29 234.724 1179 238.844C1171.7 242.963 1162.99 245.313 1153.62 245.686C1144.26 246.059 1134.53 244.444 1125.3 240.983C1116.08 237.522 1107.63 232.322 1100.72 225.843L1107.85 220.707C1113.55 226.042 1120.5 230.325 1128.1 233.175C1135.7 236.025 1143.71 237.355 1151.42 237.048C1159.13 236.741 1166.31 234.805 1172.32 231.413C1178.32 228.021 1182.98 223.276 1185.86 217.599L1195.44 222.07Z" fill="#61FF00"/>
<path d="M1213.64 230.011C1208.88 239.206 1201.23 246.893 1191.36 252.39C1181.5 257.888 1169.73 261.028 1157.08 261.531C1144.44 262.035 1131.32 259.887 1118.88 255.278C1106.44 250.669 1095.07 243.741 1085.76 235.106L1091.59 230.969C1099.9 238.684 1110.06 244.875 1121.18 248.993C1132.29 253.111 1144.02 255.03 1155.31 254.58C1166.61 254.13 1177.13 251.325 1185.94 246.413C1194.76 241.501 1201.59 234.633 1205.84 226.417L1213.64 230.011Z" fill="#61FF00"/>
<path d="M1195.44 96.4737C1191.94 89.5801 1186.29 83.8188 1179 79.6997C1171.7 75.5805 1162.99 73.2304 1153.62 72.8573C1144.26 72.4842 1134.53 74.0996 1125.3 77.5605C1116.08 81.0214 1107.63 86.2212 1100.72 92.6999L1107.85 97.8364C1113.55 92.5009 1120.5 88.2186 1128.1 85.3684C1135.7 82.5182 1143.71 81.1879 1151.42 81.4951C1159.13 81.8024 1166.31 83.7378 1172.32 87.1301C1178.32 90.5224 1182.98 95.2671 1185.86 100.944L1195.44 96.4737Z" fill="#61FF00"/>
<path d="M1213.64 88.5318C1208.88 79.3368 1201.23 71.6505 1191.36 66.1528C1181.5 60.6552 1169.73 57.5156 1157.08 57.0119C1144.44 56.5083 1131.32 58.656 1118.88 63.2651C1106.44 67.8742 1095.07 74.8026 1085.76 83.4374L1091.59 87.5742C1099.9 79.8591 1110.06 73.6685 1121.18 69.5503C1132.29 65.432 1144.02 63.5131 1155.31 63.9631C1166.61 64.4131 1177.13 67.2183 1185.94 72.1305C1194.76 77.0426 1201.59 83.9104 1205.84 92.1261L1213.64 88.5318Z" fill="#61FF00"/>
<rect x="1138.87" y="111.429" width="19.5828" height="98.0909" rx="9.79138" stroke="#3D9BB9" stroke-width="10"/>
<ellipse cx="83.6411" cy="238.027" rx="21.0197" ry="20.4191" transform="rotate(-50.5611 83.6411 238.027)" fill="#2F80ED"/>
<path d="M105.222 173.594C91.9253 169.029 77.4828 168.563 63.7205 172.255C49.9582 175.947 37.4943 183.632 27.9049 194.336C18.3156 205.041 12.0314 218.285 9.84712 232.394C7.66285 246.503 9.67656 260.844 15.6336 273.602C21.5907 286.36 31.2235 296.962 43.314 304.069C55.4046 311.176 69.4097 314.467 83.5584 313.527C97.7071 312.587 111.364 307.457 122.802 298.787C134.24 290.117 142.945 278.296 147.817 264.819L137.347 261.224C133.234 272.603 125.885 282.583 116.228 289.903C106.571 297.223 95.0412 301.553 83.096 302.347C71.1507 303.14 59.3266 300.362 49.119 294.362C38.9115 288.362 30.7788 279.411 25.7494 268.639C20.7201 257.868 19.02 245.761 20.8641 233.849C22.7082 221.938 28.0137 210.756 36.1097 201.718C44.2057 192.681 54.7285 186.193 66.3475 183.076C77.9665 179.959 90.1599 180.352 101.386 184.206L105.222 173.594Z" fill="#56CCF2"/>
<path d="M100.69 190.136C91.4089 187.189 81.22 187.203 71.4114 190.177C61.6029 193.151 52.6151 198.951 45.5847 206.844C38.5543 214.736 33.7971 224.367 31.9146 234.518C30.0321 244.669 31.1089 254.884 35.0088 263.871C38.9087 272.859 45.4565 280.216 53.8243 285.011C62.1921 289.806 72.004 291.824 82.0192 290.811C92.0344 289.797 101.803 285.797 110.09 279.316C118.377 272.835 124.81 264.165 128.575 254.401L121.268 252.081C118.089 260.324 112.658 267.644 105.661 273.115C98.6648 278.587 90.4174 281.964 81.9619 282.82C73.5064 283.676 65.2225 281.972 58.1579 277.923C51.0933 273.875 45.5652 267.664 42.2726 260.076C38.9801 252.488 38.071 243.864 39.6603 235.294C41.2496 226.724 45.266 218.593 51.2015 211.929C57.137 205.266 64.7251 200.369 73.0061 197.858C81.2872 195.348 89.8893 195.335 97.7247 197.824L100.69 190.136Z" fill="#2D9CDB"/>
<path d="M119.752 327.397C131.075 321.996 141.265 314.425 149.74 305.117C158.215 295.808 164.81 284.944 169.148 273.146C173.485 261.347 175.481 248.844 175.021 236.351C174.56 223.858 171.653 211.62 166.465 200.335C161.277 189.05 153.909 178.939 144.783 170.58C135.657 162.221 124.95 155.777 113.275 151.616C101.601 147.455 89.1857 145.659 76.7396 146.33C64.2934 147.002 52.0598 150.127 40.7373 155.528L45.3825 165.632C55.3738 160.866 66.169 158.108 77.1517 157.516C88.1344 156.924 99.0896 158.508 109.392 162.18C119.694 165.851 129.141 171.538 137.195 178.914C145.248 186.29 151.749 195.212 156.327 205.171C160.905 215.129 163.471 225.928 163.877 236.952C164.283 247.976 162.522 259.009 158.695 269.42C154.867 279.832 149.048 289.418 141.569 297.632C134.09 305.846 125.098 312.527 115.107 317.293L119.752 327.397Z" fill="#BB6BD9"/>
<path d="M1607.07 253.107C1600.31 259.616 1588.61 258.44 1580.96 250.48C1573.3 242.519 1572.58 230.789 1579.34 224.28C1586.11 217.771 1597.8 218.948 1605.46 226.908C1613.12 234.869 1613.84 246.598 1607.07 253.107Z" fill="#219653"/>
<rect x="1435.07" y="370.005" width="161" height="35" rx="17.5" transform="rotate(-43.8897 1435.07 370.005)" stroke="#6FCF97" stroke-width="10"/>
<rect x="1615.24" y="196.687" width="161" height="35" rx="17.5" transform="rotate(-43.8897 1615.24 196.687)" stroke="#6FCF97" stroke-width="10"/>
<path d="M1552.82 -59.7598C1541.76 -59.4227 1530.8 -56.1953 1521.11 -50.4202C1511.41 -44.6452 1503.34 -36.5379 1497.76 -26.959C1492.17 -17.3801 1489.27 -6.68703 1489.37 3.98531C1489.48 14.6576 1492.57 24.911 1498.33 33.657C1504.1 42.4029 1512.31 49.3152 1522.1 53.6602C1531.89 58.0051 1542.9 59.6205 1553.95 58.335C1565 57.0494 1575.68 52.9109 1584.87 46.3586C1594.05 39.8063 1601.39 31.0848 1606.11 21.1198L1599.2 18.4245C1595.07 27.1479 1588.64 34.7827 1580.6 40.5186C1572.57 46.2545 1563.21 49.8774 1553.54 51.0027C1543.86 52.1281 1534.23 50.714 1525.66 46.9104C1517.09 43.1069 1509.9 37.0558 1504.85 29.3995C1499.81 21.7433 1497.1 12.7675 1497.01 3.42489C1496.92 -5.9177 1499.46 -15.2785 1504.35 -23.6639C1509.24 -32.0493 1516.3 -39.1464 1524.79 -44.2019C1533.28 -49.2574 1542.87 -52.0826 1552.55 -52.3778L1552.82 -59.7598Z" fill="#F2C94C"/>
<path d="M1473.65 39.4097C1481.58 52.2548 1492.61 62.8873 1505.66 70.2737C1518.71 77.6601 1533.33 81.5489 1548.12 81.5622C1562.9 81.5755 1577.33 77.7128 1590.02 70.3495C1602.7 62.9863 1613.2 52.3731 1620.5 39.5417L1612.79 34.9063C1606.24 46.4099 1596.83 55.9248 1585.46 62.5261C1574.09 69.1274 1561.15 72.5905 1547.89 72.5786C1534.64 72.5667 1521.53 69.0802 1509.83 62.4582C1498.13 55.8361 1488.25 46.3038 1481.13 34.7879L1473.65 39.4097Z" fill="#4CF2F2"/>
<path d="M1460.29 47.561C1468.08 63.0148 1479.99 76.0057 1494.81 85.2002C1509.62 94.3948 1526.8 99.4619 1544.59 99.8814C1562.37 100.301 1580.12 96.058 1596.01 87.5878C1611.9 79.1176 1625.36 66.7253 1635.01 51.6828L1629.02 48.1072C1620.06 62.0823 1607.55 73.5953 1592.79 81.4645C1578.03 89.3337 1561.54 93.2757 1545.01 92.8859C1528.49 92.4961 1512.53 87.7886 1498.76 79.2464C1485 70.7042 1473.93 58.6352 1466.7 44.2778L1460.29 47.561Z" fill="#F24C60"/>
<rect x="1323.46" y="76.9272" width="144" height="27" rx="13.5" transform="rotate(-31.6994 1323.46 76.9272)" stroke="#BB6BD9" stroke-width="5"/>
<path d="M1565.55 -9.70817C1570.49 -1.71999 1567.82 8.87272 1559.6 13.9513C1551.37 19.0299 1540.71 16.6712 1535.77 8.68305C1530.84 0.694875 1533.51 -9.89784 1541.73 -14.9764C1549.95 -20.055 1560.62 -17.6963 1565.55 -9.70817Z" fill="#4FF24C"/>
<ellipse cx="265" cy="172" rx="27" ry="28" fill="#FCFF5C"/>
<line x1="265" y1="144.08" x2="265" y2="-1" stroke="white" stroke-width="10"/>
<ellipse cx="319" cy="236" rx="27" ry="28" fill="#BB6BD9"/>
<line x1="318" y1="211.08" x2="318" y2="-1" stroke="white" stroke-width="10"/>
<path d="M1429.86 238.684C1431.28 240.268 1431.16 242.718 1429.49 244.037C1424.13 248.25 1418.07 251.511 1411.54 253.68C1403.77 256.257 1395.49 257.241 1387.17 256.574C1378.85 255.908 1370.65 253.604 1363.04 249.795C1356.52 246.527 1350.53 242.207 1345.35 237.022C1343.92 235.597 1344.05 233.279 1345.55 231.93V231.93C1347.05 230.58 1349.35 230.71 1350.78 232.126C1355.29 236.563 1360.46 240.268 1366.08 243.085C1372.79 246.444 1380.02 248.475 1387.36 249.063C1394.69 249.651 1401.99 248.783 1408.84 246.51C1414.46 244.647 1419.68 241.867 1424.31 238.288C1426 236.984 1428.43 237.1 1429.86 238.684V238.684Z" fill="#FFB904"/>
<path d="M1341.89 225.498C1340.2 226.789 1337.8 226.458 1336.7 224.644C1333.39 219.214 1331.23 213.067 1330.34 206.511C1329.27 198.634 1330.07 190.368 1332.68 182.316C1335.28 174.265 1339.63 166.634 1345.4 159.982C1350.39 154.227 1356.33 149.331 1362.9 145.555C1364.56 144.598 1366.63 145.382 1367.37 147.171V147.171C1368.05 148.816 1367.34 150.713 1365.81 151.595C1360.12 154.876 1354.97 159.125 1350.64 164.117C1345.62 169.906 1341.84 176.546 1339.57 183.552C1337.31 190.558 1336.61 197.751 1337.54 204.605C1338.29 210.138 1340.08 215.336 1342.81 219.955C1343.9 221.784 1343.57 224.208 1341.89 225.498V225.498Z" fill="#F46141"/>
<path d="M1377.94 141.88L1388.98 140.727C1393.67 140.238 1398.39 140.23 1403.08 140.705V140.705C1420.13 142.43 1435.92 150.441 1447.38 163.176L1448.66 164.59V164.59C1459.19 176.292 1463.7 192.213 1460.88 207.702L1460.22 211.315V211.315C1459.18 224.477 1454.19 237.018 1445.91 247.302L1438.37 256.66C1434.87 261.012 1431.02 265.076 1426.87 268.813L1419.22 275.698L1282.41 398.837" stroke="#CE3333" stroke-width="10" style="mix-blend-mode:lighten"/>
<path d="M1431.65 223.704C1430.92 226.77 1427.04 227.753 1424.94 225.409L1382.49 178.247C1381.62 177.288 1381.29 175.966 1381.59 174.711V174.711C1382.33 171.646 1386.2 170.663 1388.31 173.007L1430.76 220.168C1431.62 221.127 1431.96 222.45 1431.65 223.704V223.704Z" fill="#F4ED41"/>
<path d="M861.025 344.201C851.637 344.147 844.077 335.149 844.14 324.104C844.203 313.058 851.865 304.148 861.254 304.201C870.643 304.255 878.203 313.253 878.139 324.298C878.076 335.344 870.414 344.255 861.025 344.201Z" fill="#FFC700"/>
<rect x="656.229" y="308.029" width="161" height="35" rx="17.5" transform="rotate(0.327805 656.229 308.029)" stroke="#4E7AEA" stroke-width="10"/>
<rect x="906.225" y="309.459" width="161" height="35" rx="17.5" transform="rotate(0.327805 906.225 309.459)" stroke="#4E7AEA" stroke-width="10"/>
</g>
<defs>
<clipPath id="clip0_101_2">
<rect width="1680" height="334" fill="white"/>
</clipPath>
</defs>
</svg>
